<svg width="2425" height="969" viewBox="0 0 2425 969" fill="none" xmlns="http://www.w3.org/2000/svg">
<path d="M15.5866 514.044C70.2299 480.393 303.491 215.505 1177.97 364.147C2052.46 512.79 2292.77 399.661 2397.34 150.83" stroke="url(#paint0_linear_31_2)" stroke-width="1.11256" stroke-miterlimit="10"/>
<path d="M16.0507 504.795C68.0939 472.728 307.524 221.043 1174.74 373.175C2041.96 525.307 2288.61 379.944 2388.29 142.917" stroke="url(#paint1_linear_31_2)" stroke-width="1.11256" stroke-miterlimit="10"/>
<path d="M16.5599 495.554C65.9958 465.091 311.534 226.692 1171.6 382.597C2031.67 538.503 2284.66 360.968 2379.35 135.788" stroke="url(#paint2_linear_31_2)" stroke-width="1.11256" stroke-miterlimit="10"/>
<path d="M17.0681 486.304C63.9082 457.443 315.533 232.343 1168.46 392.01C2021.39 551.678 2280.71 341.983 2370.41 128.66" stroke="url(#paint3_linear_31_2)" stroke-width="1.11256" stroke-miterlimit="10"/>
<path d="M17.5757 477.051C61.8084 449.794 319.541 237.98 1165.32 401.41C2011.09 564.84 2276.76 322.985 2361.47 121.509" stroke="url(#paint4_linear_31_2)" stroke-width="1.11256" stroke-miterlimit="10"/>
<path d="M18.074 467.812C59.7109 442.158 323.542 243.641 1162.16 410.836C2000.77 578.03 2272.78 304.012 2352.51 114.394" stroke="url(#paint5_linear_31_2)" stroke-width="1.11256" stroke-miterlimit="10"/>
<path d="M18.5815 458.559C57.611 434.509 327.551 249.288 1159.02 420.245C1990.48 591.203 2268.83 285.024 2343.57 107.252" stroke="url(#paint6_linear_31_2)" stroke-width="1.11256" stroke-miterlimit="10"/>
<path d="M19.0899 449.307C55.5236 426.86 331.56 254.926 1155.87 429.646C1980.19 604.367 2264.88 266.027 2334.63 100.113" stroke="url(#paint7_linear_31_2)" stroke-width="1.11256" stroke-miterlimit="10"/>
<path d="M19.5974 440.054C53.4238 419.21 335.558 260.574 1152.73 439.056C1969.91 617.539 2260.91 247.04 2325.71 92.9698" stroke="url(#paint8_linear_31_2)" stroke-width="1.11256" stroke-miterlimit="10"/>
<path d="M20.1065 430.813C51.337 411.572 339.568 266.222 1149.58 448.48C1959.6 630.737 2256.95 228.066 2316.76 85.853" stroke="url(#paint9_linear_31_2)" stroke-width="1.11256" stroke-miterlimit="10"/>
<path d="M20.6143 421.562C49.2375 403.925 343.578 271.872 1146.44 457.882C1949.3 643.892 2252.99 209.069 2307.82 78.7037" stroke="url(#paint10_linear_31_2)" stroke-width="1.11256" stroke-miterlimit="10"/>
<path d="M21.1117 412.31C47.1276 396.277 347.564 277.51 1143.29 467.293C1939.02 657.075 2249.03 190.082 2298.87 71.5738" stroke="url(#paint11_linear_31_2)" stroke-width="1.11256" stroke-miterlimit="10"/>
<path d="M21.6211 403.07C45.0411 388.64 351.576 283.171 1140.15 476.716C1928.73 670.261 2245.08 171.107 2289.93 64.446" stroke="url(#paint12_linear_31_2)" stroke-width="1.11256" stroke-miterlimit="10"/>
<path d="M22.1286 393.814C42.9413 380.988 355.584 288.805 1137 486.114C1918.41 683.424 2241.12 152.119 2280.98 57.3039" stroke="url(#paint13_linear_31_2)" stroke-width="1.11256" stroke-miterlimit="10"/>
<path d="M22.637 384.565C40.8538 373.341 359.594 294.455 1133.86 495.528C1908.12 696.601 2237.15 133.135 2272.04 50.1663" stroke="url(#paint14_linear_31_2)" stroke-width="1.11256" stroke-miterlimit="10"/>
<path d="M23.1461 375.32C38.7556 365.7 363.593 300.102 1130.72 504.947C1897.84 709.792 2233.2 114.156 2263.11 43.0442" stroke="url(#paint15_linear_31_2)" stroke-width="1.11256" stroke-miterlimit="10"/>
<path d="M23.6536 366.071C36.6672 358.053 367.602 305.752 1127.58 514.36C1887.55 722.968 2229.24 95.1621 2254.15 35.9079" stroke="url(#paint16_linear_31_2)" stroke-width="1.11256" stroke-miterlimit="10"/>
<path d="M24.1503 356.821C34.5567 350.408 371.601 311.403 1124.41 523.765C1877.22 736.126 2225.28 76.1763 2245.22 28.769" stroke="url(#paint17_linear_31_2)" stroke-width="1.11256" stroke-miterlimit="10"/>
<path d="M24.6594 347.568C32.4699 342.758 375.599 317.041 1121.27 533.175C1866.95 749.31 2221.32 57.1903 2236.27 21.6405" stroke="url(#paint18_linear_31_2)" stroke-width="1.11256" stroke-miterlimit="10"/>
<path d="M25.1672 338.326C30.3704 335.119 379.609 322.699 1118.13 542.596C1856.66 762.493 2217.37 38.202 2227.33 14.499" stroke="url(#paint19_linear_31_2)" stroke-width="1.11256" stroke-miterlimit="10"/>
<path d="M25.6763 329.077C28.2836 327.473 383.619 328.34 1114.99 552C1846.37 775.66 2213.4 19.2199 2218.39 7.37309" stroke="url(#paint20_linear_31_2)" stroke-width="1.11256" stroke-miterlimit="10"/>
<path d="M26.1838 319.824C26.1838 319.824 387.628 333.986 1111.84 561.411C1836.05 788.835 2209.44 0.232872 2209.44 0.232872" stroke="#FCEE21" stroke-width="1.11256" stroke-miterlimit="10"/>
<path d="M31.8342 336.487C33.0135 334.948 399.376 321.174 1111.22 547.099C1823.07 773.024 2194.69 41.2466 2212.57 34.2859" stroke="#FBE421" stroke-width="1.11256" stroke-miterlimit="10"/>
<path d="M37.4849 353.163C39.8436 350.086 411.137 308.384 1110.61 532.81C1810.08 757.237 2179.96 82.2609 2215.7 68.3408" stroke="#FBDA21" stroke-width="1.11256" stroke-miterlimit="10"/>
<path d="M43.1373 369.831C46.6753 365.215 422.899 295.585 1109.98 518.504C1797.07 741.422 2165.21 123.257 2218.84 102.398" stroke="#FAD021" stroke-width="1.11256" stroke-miterlimit="10"/>
<path d="M48.7866 386.493C53.4926 380.339 434.658 282.769 1109.37 504.2C1784.08 725.632 2150.45 164.27 2221.96 136.45" stroke="#F9C622" stroke-width="1.11256" stroke-miterlimit="10"/>
<path d="M54.4367 403.161C60.322 395.469 446.418 269.971 1108.75 489.893C1771.08 709.816 2135.71 205.278 2225.09 170.497" stroke="#F8BC22" stroke-width="1.11256" stroke-miterlimit="10"/>
<path d="M60.099 419.824C67.1637 410.593 458.178 257.158 1108.14 475.593C1758.09 694.028 2120.97 246.291 2228.22 204.551" stroke="#F8B222" stroke-width="1.11256" stroke-miterlimit="10"/>
<path d="M65.7481 436.487C73.9921 425.718 469.936 244.355 1107.52 461.291C1745.1 678.227 2106.22 287.294 2231.35 238.604" stroke="#F7A822" stroke-width="1.11256" stroke-miterlimit="10"/>
<path d="M71.3991 453.154C80.8225 440.846 481.696 231.545 1106.9 446.983C1732.11 662.421 2091.48 328.3 2234.47 272.651" stroke="#F69E22" stroke-width="1.11256" stroke-miterlimit="10"/>
<path d="M77.0503 469.829C87.653 455.982 493.458 218.753 1106.29 432.682C1719.12 646.611 2076.73 369.314 2237.6 306.704" stroke="#F69422" stroke-width="1.11256" stroke-miterlimit="10"/>
<path d="M82.7017 486.494C94.4838 471.108 505.219 205.951 1105.66 418.383C1706.11 630.815 2061.99 410.33 2240.73 340.76" stroke="#F58A22" stroke-width="1.11256" stroke-miterlimit="10"/>
<path d="M88.3519 503.162C101.313 486.238 516.978 193.143 1105.05 404.076C1693.11 615.01 2047.24 451.327 2243.86 374.807" stroke="#F48023" stroke-width="1.11256" stroke-miterlimit="10"/>
<path d="M94.0141 519.825C108.143 501.363 528.739 180.34 1104.44 389.774C1680.15 599.208 2032.5 492.339 2247 408.869" stroke="#F37623" stroke-width="1.11256" stroke-miterlimit="10"/>
<path d="M99.6645 536.49C114.973 516.49 540.498 167.528 1103.81 375.465C1667.13 583.402 2017.75 533.346 2250.12 442.915" stroke="#F36C23" stroke-width="1.11256" stroke-miterlimit="10"/>
<path d="M105.314 553.159C121.802 531.62 552.258 154.731 1103.2 361.169C1654.14 567.608 2003.01 574.363 2253.26 476.973" stroke="#F26223" stroke-width="1.11256" stroke-miterlimit="10"/>
<path d="M110.965 569.82C128.632 546.742 564.019 141.925 1102.58 346.854C1641.15 551.784 1988.26 615.353 2256.39 511.013" stroke="#F15823" stroke-width="1.11256" stroke-miterlimit="10"/>
<path d="M116.616 586.487C135.463 561.87 575.779 129.114 1101.96 332.558C1628.14 536.001 1973.51 656.371 2259.51 545.07" stroke="#F14E23" stroke-width="1.11256" stroke-miterlimit="10"/>
<path d="M122.267 603.163C142.293 577.008 587.529 116.325 1101.34 318.258C1615.15 520.191 1958.76 697.387 2262.64 579.125" stroke="#F04423" stroke-width="1.11256" stroke-miterlimit="10"/>
<path d="M127.929 619.825C149.135 592.131 599.299 103.511 1100.74 303.956C1602.18 504.401 1944.04 738.398 2265.77 613.178" stroke="#EF3A24" stroke-width="1.11256" stroke-miterlimit="10"/>
<path d="M133.579 636.493C155.953 607.261 611.059 90.7114 1100.11 289.649C1589.16 488.587 1929.28 779.395 2268.89 647.225" stroke="#EE3024" stroke-width="1.11256" stroke-miterlimit="10"/>
<path d="M139.229 653.158C162.782 622.388 622.82 77.91 1099.49 275.349C1576.17 472.789 1914.53 820.41 2272.02 681.28" stroke="#EE2624" stroke-width="1.11256" stroke-miterlimit="10"/>
<path d="M144.879 669.822C169.611 637.513 634.578 65.0968 1098.88 261.038C1563.18 456.979 1899.78 861.414 2275.16 715.333" stroke="#ED1C24" stroke-width="1.11256" stroke-miterlimit="10"/>
<defs>
<linearGradient id="paint0_linear_31_2" x1="82.0266" y1="156.952" x2="2318.33" y2="575.526" gradientUnits="userSpaceOnUse">
<stop stop-color="#FF9074"/>
<stop offset="1" stop-color="#FFE23A" stop-opacity="0.8"/>
</linearGradient>
<linearGradient id="paint1_linear_31_2" x1="74.7017" y1="162.834" x2="2318.58" y2="550.369" gradientUnits="userSpaceOnUse">
<stop stop-color="#FF9470"/>
<stop offset="1" stop-color="#FFE339" stop-opacity="0.8095"/>
</linearGradient>
<linearGradient id="paint2_linear_31_2" x1="67.7465" y1="168.861" x2="2318.56" y2="524.215" gradientUnits="userSpaceOnUse">
<stop stop-color="#FF996C"/>
<stop offset="1" stop-color="#FFE338" stop-opacity="0.819"/>
</linearGradient>
<linearGradient id="paint3_linear_31_2" x1="61.2407" y1="175.017" x2="2318.23" y2="497.836" gradientUnits="userSpaceOnUse">
<stop stop-color="#FF9D68"/>
<stop offset="1" stop-color="#FFE436" stop-opacity="0.8286"/>
</linearGradient>
<linearGradient id="paint4_linear_31_2" x1="55.1511" y1="181.256" x2="2317.12" y2="471.523" gradientUnits="userSpaceOnUse">
<stop stop-color="#FEA264"/>
<stop offset="1" stop-color="#FEE435" stop-opacity="0.8381"/>
</linearGradient>
<linearGradient id="paint5_linear_31_2" x1="49.5332" y1="187.565" x2="2315.46" y2="444.795" gradientUnits="userSpaceOnUse">
<stop stop-color="#FEA660"/>
<stop offset="1" stop-color="#FEE534" stop-opacity="0.8476"/>
</linearGradient>
<linearGradient id="paint6_linear_31_2" x1="44.3609" y1="193.956" x2="2313.47" y2="418.163" gradientUnits="userSpaceOnUse">
<stop stop-color="#FEAB5C"/>
<stop offset="1" stop-color="#FEE533" stop-opacity="0.8571"/>
</linearGradient>
<linearGradient id="paint7_linear_31_2" x1="39.6588" y1="200.369" x2="2310.67" y2="391.18" gradientUnits="userSpaceOnUse">
<stop stop-color="#FEAF58"/>
<stop offset="1" stop-color="#FEE632" stop-opacity="0.8667"/>
</linearGradient>
<linearGradient id="paint8_linear_31_2" x1="35.4245" y1="206.819" x2="2307.53" y2="364.096" gradientUnits="userSpaceOnUse">
<stop stop-color="#FEB454"/>
<stop offset="1" stop-color="#FEE730" stop-opacity="0.8762"/>
</linearGradient>
<linearGradient id="paint9_linear_31_2" x1="31.4943" y1="215.815" x2="2303.43" y2="339.764" gradientUnits="userSpaceOnUse">
<stop stop-color="#FEB850"/>
<stop offset="1" stop-color="#FEE72F" stop-opacity="0.8857"/>
</linearGradient>
<linearGradient id="paint10_linear_31_2" x1="27.4821" y1="240.801" x2="2298.18" y2="331.16" gradientUnits="userSpaceOnUse">
<stop stop-color="#FEBD4C"/>
<stop offset="1" stop-color="#FEE82E" stop-opacity="0.8952"/>
</linearGradient>
<linearGradient id="paint11_linear_31_2" x1="24.472" y1="265.732" x2="2293.13" y2="322.743" gradientUnits="userSpaceOnUse">
<stop stop-color="#FDC149"/>
<stop offset="1" stop-color="#FDE82D" stop-opacity="0.9048"/>
</linearGradient>
<linearGradient id="paint12_linear_31_2" x1="22.4801" y1="290.53" x2="2287.79" y2="314.051" gradientUnits="userSpaceOnUse">
<stop stop-color="#FDC645"/>
<stop offset="1" stop-color="#FDE92C" stop-opacity="0.9143"/>
</linearGradient>
<linearGradient id="paint13_linear_31_2" x1="21.4766" y1="315.188" x2="2282.65" y2="305.555" gradientUnits="userSpaceOnUse">
<stop stop-color="#FDCA41"/>
<stop offset="1" stop-color="#FDE92B" stop-opacity="0.9238"/>
</linearGradient>
<linearGradient id="paint14_linear_31_2" x1="21.4804" y1="339.631" x2="2277.22" y2="296.794" gradientUnits="userSpaceOnUse">
<stop stop-color="#FDCF3D"/>
<stop offset="1" stop-color="#FDEA29" stop-opacity="0.9333"/>
</linearGradient>
<linearGradient id="paint15_linear_31_2" x1="22.4724" y1="363.85" x2="2271.98" y2="287.993" gradientUnits="userSpaceOnUse">
<stop stop-color="#FDD339"/>
<stop offset="1" stop-color="#FDEB28" stop-opacity="0.9429"/>
</linearGradient>
<linearGradient id="paint16_linear_31_2" x1="24.4057" y1="387.786" x2="2266.46" y2="279.433" gradientUnits="userSpaceOnUse">
<stop stop-color="#FDD835"/>
<stop offset="1" stop-color="#FDEB27" stop-opacity="0.9524"/>
</linearGradient>
<linearGradient id="paint17_linear_31_2" x1="27.315" y1="411.401" x2="2260.89" y2="270.611" gradientUnits="userSpaceOnUse">
<stop stop-color="#FDDC31"/>
<stop offset="1" stop-color="#FDEC26" stop-opacity="0.9619"/>
</linearGradient>
<linearGradient id="paint18_linear_31_2" x1="31.1449" y1="434.695" x2="2255.51" y2="262.022" gradientUnits="userSpaceOnUse">
<stop stop-color="#FCE12D"/>
<stop offset="1" stop-color="#FCEC25" stop-opacity="0.9714"/>
</linearGradient>
<linearGradient id="paint19_linear_31_2" x1="35.9059" y1="457.575" x2="2249.84" y2="253.19" gradientUnits="userSpaceOnUse">
<stop stop-color="#FCE529"/>
<stop offset="1" stop-color="#FCED23" stop-opacity="0.981"/>
</linearGradient>
<linearGradient id="paint20_linear_31_2" x1="41.5478" y1="480.075" x2="2244.36" y2="244.612" gradientUnits="userSpaceOnUse">
<stop stop-color="#FCEA25"/>
<stop offset="1" stop-color="#FCED22" stop-opacity="0.9905"/>
</linearGradient>
</defs>
</svg>
