<svg width="42" height="30" viewBox="0 0 42 30" fill="none" xmlns="http://www.w3.org/2000/svg">
<g clip-path="url(#clip0_487_2294)">
<rect width="42" height="30" rx="3" fill="white"/>
<path fill-rule="evenodd" clip-rule="evenodd" d="M0 20H42V30H0V20Z" fill="#249F58"/>
<path fill-rule="evenodd" clip-rule="evenodd" d="M21 19C23.208 19 25 17.208 25 15C25 12.792 23.208 11 21 11C18.792 11 17 12.792 17 15C17 17.208 18.792 19 21 19ZM21 17.4C22.3248 17.4 23.4 16.3248 23.4 15C23.4 13.6752 22.3248 12.6 21 12.6C19.6752 12.6 18.6 13.6752 18.6 15C18.6 16.3248 19.6752 17.4 21 17.4Z" fill="#1A47B8"/>
<path d="M21 16C21.5523 16 22 15.5523 22 15C22 14.4477 21.5523 14 21 14C20.4477 14 20 14.4477 20 15C20 15.5523 20.4477 16 21 16Z" fill="#1A47B8"/>
<path fill-rule="evenodd" clip-rule="evenodd" d="M0 0H42V10H0V0Z" fill="#FF6C2D"/>
</g>
<defs>
<clipPath id="clip0_487_2294">
<rect width="42" height="30" rx="3" fill="white"/>
</clipPath>
</defs>
</svg>
